Coordinates
version=1
nRows=6
nColumns=34
inDegrees=yes

Units are S.I. units (second, meters, Newtons, ...)
If the header above contains a line with 'inDegrees', this indicates whether rotational values are in degrees (yes) or radians (no).

endheader
time	pelvis_tilt	pelvis_list	pelvis_rotation	pelvis_tx	pelvis_ty	pelvis_tz	hip_flexion_r	hip_adduction_r	hip_rotation_r	knee_angle_r	ankle_angle_r	subtalar_angle_r	mtp_angle_r	hip_flexion_l	hip_adduction_l	hip_rotation_l	knee_angle_l	ankle_angle_l	subtalar_angle_l	mtp_angle_l	lumbar_extension	lumbar_bending	lumbar_rotation	arm_flex_r	arm_add_r	arm_rot_r	elbow_flex_r	pro_sup_r	arm_flex_l	arm_add_l	arm_rot_l	elbow_flex_l	pro_sup_l
     15.35000000	     27.69232374	      6.40003219	      1.89952728	      0.02682350	      0.46955205	     -0.01081873	     64.42153377	     -2.03757674	      0.45328843	     46.60662277	     -7.14089718	    -12.21818068	      0.00000000	     58.60000879	     -5.66066527	    -26.05997715	     47.48038631	      4.59108477	     10.91845804	      0.00000000	    -51.52377149	      2.42156826	     10.78013990	     87.87947508	    -36.69748141	     36.76606511	     50.48101525	     73.25375301	    149.50954519	      4.41385178	     96.26188752	     26.57779745	     50.72664038
     15.36666670	     27.34615433	      6.55005995	      1.00008488	      0.02875661	      0.47493212	     -0.00276364	     64.26788818	     -0.76749718	      0.85089293	     46.60029661	     -7.71721656	    -14.23953300	      0.00000000	     58.90474556	     -6.82069867	    -26.67104991	     46.67019058	      2.57755173	     11.35822504	      0.00000000	    -52.38636221	      2.09315087	     11.06950677	     89.89859792	    -32.38257053	     34.85501879	     46.73915479	     72.73405915	    150.94928580	      2.54503481	     94.43819120	     28.79481605	     50.27110037
     15.38333330	     26.50031558	      6.56148219	      0.93169272	      0.03730170	      0.47195090	     -0.00489467	     65.70576427	     -0.25471981	      0.83146642	     47.65196319	     -7.38396907	    -15.17291213	      0.00000000	     60.51495575	     -7.49688632	    -26.26311244	     47.87661378	      2.20543542	     11.88075821	      0.00000000	    -52.85024505	      1.78762522	     12.71991714	     91.27554730	    -32.47890238	     34.40154499	     45.39740086	     72.64005498	    153.01054546	      3.41718627	     93.93339138	     29.78126813	     50.23654727
     15.40000000	     26.39849158	      6.65933210	      1.04528269	      0.04035322	      0.47580189	     -0.00477980	     66.02023581	      0.00527089	      1.60051971	     48.34889797	     -9.00363804	    -16.43635025	      0.00000000	     59.72427862	     -7.50443847	    -26.69459018	     47.89740772	      3.23437225	     12.97591778	      0.00000000	    -53.98132689	      2.49424753	     13.52799048	     93.40041481	    -29.89488365	     33.71660449	     41.46478295	     71.74128624	    154.13458610	      1.05112489	     91.97059392	     35.17710590	     49.93883552
     15.41666670	     25.31864932	      6.89938966	      1.51688096	      0.05556890	      0.47681723	     -0.00960901	     67.24516909	     -0.67796238	      1.44278800	     49.34635079	     -8.32379231	    -16.94502552	      0.00000000	     61.04429351	     -7.54303800	    -27.16876409	     48.87641619	      3.37042074	     13.01092416	      0.00000000	    -53.34265367	      2.68359244	     15.27824039	     92.04210856	    -30.98279866	     32.28570289	     41.86467596	     71.01864643	    153.73901177	      1.95188105	     89.95415292	     38.09541422	     50.01434599
     15.43333330	     24.13362594	      6.95829324	      2.07707708	      0.06818001	      0.46937414	     -0.01443407	     70.09595689	     -1.40602426	      1.70074371	     52.41383545	     -7.42519836	    -18.22671064	      0.00000000	     63.44848248	     -7.87101683	    -27.10685599	     52.07805008	      4.92308266	     12.82374147	      0.00000000	    -52.39282241	      3.17259388	     16.48249316	     90.41710117	    -31.04862853	     28.78626908	     41.91128460	     69.95054944	    152.99324646	      2.80706688	     87.04083598	     40.79209274	     50.40058423
